<?xml version="1.0" encoding="utf-8"?>
<!-- Generator: Adobe Illustrator 17.1.0, SVG Export Plug-In . SVG Version: 6.00 Build 0)  -->
<!DOCTYPE svg PUBLIC "-//W3C//DTD SVG 1.1//EN" "http://www.w3.org/Graphics/SVG/1.1/DTD/svg11.dtd">
<svg version="1.1" id="Layer_1" xmlns="http://www.w3.org/2000/svg" xmlns:xlink="http://www.w3.org/1999/xlink" x="0px" y="0px"
	 viewBox="0 0 147.5 19.7" enable-background="new 0 0 147.5 19.7" xml:space="preserve">
<g>
	<g>
		<path fill-rule="evenodd" clip-rule="evenodd" fill="#263F84" d="M10.7,4.2l-3,8l-0.3-1.6C6.6,8.6,5.2,6.8,3.2,5.7l2.7,10.3h3.2
			l4.8-11.7H10.7z"/>
		<polygon fill-rule="evenodd" clip-rule="evenodd" fill="#263F84" points="13.2,15.9 15.1,4.2 18.1,4.2 16.2,15.9 		"/>
		<path fill-rule="evenodd" clip-rule="evenodd" fill="#263F84" d="M27.3,4.5C26.7,4.2,25.7,4,24.5,4c-3,0-5.1,1.6-5.1,3.9
			c0,1.7,1.5,2.6,2.7,3.2c1.2,0.6,1.6,0.9,1.6,1.5c0,0.8-0.9,1.1-1.8,1.1c-1.2,0-1.9-0.2-2.9-0.6l-0.4-0.2l-0.4,2.6
			c0.7,0.3,2,0.6,3.4,0.6c3.2,0,5.3-1.6,5.3-4c0-1.3-0.8-2.4-2.6-3.2c-1.1-0.5-1.7-0.9-1.7-1.5c0-0.5,0.6-1,1.7-1
			c1,0,1.7,0.2,2.3,0.5L26.8,7L27.3,4.5z"/>
		<path fill-rule="evenodd" clip-rule="evenodd" fill="#263F84" d="M31.3,11.8c0.3-0.7,1.2-3.3,1.2-3.3c0,0,0.2-0.7,0.4-1.1l0.2,1
			c0,0,0.6,2.8,0.7,3.4C33.4,11.8,31.9,11.8,31.3,11.8L31.3,11.8z M35,4.2h-2.3c-0.7,0-1.3,0.2-1.6,1l-4.5,10.8h3.2
			c0,0,0.5-1.4,0.6-1.8c0.4,0,3.4,0,3.9,0c0.1,0.4,0.4,1.8,0.4,1.8h2.8L35,4.2z"/>
		<path fill-rule="evenodd" clip-rule="evenodd" fill="#E2A327" d="M4.9,4.2H0l0,0.2c3.8,1,6.3,3.4,7.4,6.2L6.3,5.2
			C6.1,4.4,5.6,4.2,4.9,4.2z"/>
	</g>
	<path fill-rule="evenodd" clip-rule="evenodd" fill="#FFFFFF" d="M117,0h28.4c1.1,0,2.1,0.9,2.1,1.9v15.9c0,1-0.9,1.9-2.1,1.9H117
		c-1.1,0-2.1-0.9-2.1-1.9V1.9C115,0.9,115.9,0,117,0z"/>
	<g>
		<polygon fill-rule="evenodd" clip-rule="evenodd" fill="#FBB230" points="64.7,19.4 65.2,19.4 65.7,19.3 66.2,19.3 66.7,19.2 
			67.2,19.1 67.6,19 68.1,18.8 68.5,18.6 69,18.4 69.4,18.2 69.8,18 70.2,17.7 70.6,17.5 70.9,17.2 71.3,16.9 71.6,16.5 71.9,16.2 
			72.2,15.9 72.5,15.5 72.8,15.1 73.1,14.7 73.3,14.3 73.5,13.9 73.7,13.5 73.9,13 74,12.6 74.2,12.1 74.3,11.6 74.3,11.2 
			74.4,10.7 74.4,10.2 74.5,9.7 74.4,9.2 74.4,8.7 74.3,8.2 74.3,7.7 74.2,7.3 74,6.8 73.9,6.4 73.7,5.9 73.5,5.5 73.3,5.1 
			73.1,4.7 72.8,4.3 72.5,3.9 72.2,3.5 71.9,3.2 71.6,2.8 71.3,2.5 70.9,2.2 70.6,1.9 70.2,1.7 69.8,1.4 69.4,1.2 69,1 68.5,0.8 
			68.1,0.6 67.6,0.4 67.2,0.3 66.7,0.2 66.2,0.1 65.7,0 65.2,0 64.7,0 64.2,0 63.8,0 63.3,0.1 62.8,0.2 62.3,0.3 61.9,0.4 61.4,0.6 
			61,0.8 60.5,1 60.1,1.2 59.7,1.4 59.3,1.7 59,1.9 58.6,2.2 58.2,2.5 57.9,2.8 57.6,3.2 57.3,3.5 57,3.9 56.7,4.3 56.5,4.7 
			56.2,5.1 56,5.5 55.8,5.9 55.7,6.4 55.5,6.8 55.4,7.3 55.3,7.7 55.2,8.2 55.1,8.7 55.1,9.2 55.1,9.7 55.1,10.2 55.1,10.7 
			55.2,11.2 55.3,11.6 55.4,12.1 55.5,12.6 55.7,13 55.8,13.5 56,13.9 56.2,14.3 56.5,14.7 56.7,15.1 57,15.5 57.3,15.9 57.6,16.2 
			57.9,16.5 58.2,16.9 58.6,17.2 59,17.5 59.3,17.7 59.7,18 60.1,18.2 60.5,18.4 61,18.6 61.4,18.8 61.9,19 62.3,19.1 62.8,19.2 
			63.3,19.3 63.8,19.3 64.2,19.4 64.7,19.4 64.7,19.4 		"/>
		<polygon fill-rule="evenodd" clip-rule="evenodd" fill="#EB2230" points="51.8,19.4 52.3,19.4 52.8,19.3 53.2,19.3 53.7,19.2 
			54.2,19.1 54.7,19 55.1,18.8 55.5,18.6 56,18.4 56.4,18.2 56.8,18 57.2,17.7 57.6,17.5 57.9,17.2 58.3,16.9 58.6,16.5 58.9,16.2 
			59.2,15.9 59.5,15.5 59.8,15.1 60.1,14.7 60.3,14.3 60.5,13.9 60.7,13.5 60.9,13 61,12.6 61.1,12.1 61.3,11.6 61.3,11.2 
			61.4,10.7 61.4,10.2 61.5,9.7 61.4,9.2 61.4,8.7 61.3,8.2 61.3,7.7 61.1,7.3 61,6.8 60.9,6.4 60.7,5.9 60.5,5.5 60.3,5.1 
			60.1,4.7 59.8,4.3 59.5,3.9 59.2,3.5 58.9,3.2 58.6,2.8 58.3,2.5 57.9,2.2 57.6,1.9 57.2,1.7 56.8,1.4 56.4,1.2 56,1 55.5,0.8 
			55.1,0.6 54.7,0.4 54.2,0.3 53.7,0.2 53.2,0.1 52.8,0 52.3,0 51.8,0 51.3,0 50.8,0 50.3,0.1 49.8,0.2 49.3,0.3 48.9,0.4 48.4,0.6 
			48,0.8 47.6,1 47.1,1.2 46.7,1.4 46.3,1.7 46,1.9 45.6,2.2 45.2,2.5 44.9,2.8 44.6,3.2 44.3,3.5 44,3.9 43.7,4.3 43.5,4.7 
			43.2,5.1 43,5.5 42.8,5.9 42.6,6.4 42.5,6.8 42.4,7.3 42.3,7.7 42.2,8.2 42.1,8.7 42.1,9.2 42.1,9.7 42.1,10.2 42.1,10.7 
			42.2,11.2 42.3,11.6 42.4,12.1 42.5,12.6 42.6,13 42.8,13.5 43,13.9 43.2,14.3 43.5,14.7 43.7,15.1 44,15.5 44.3,15.9 44.6,16.2 
			44.9,16.5 45.2,16.9 45.6,17.2 46,17.5 46.3,17.7 46.7,18 47.1,18.2 47.6,18.4 48,18.6 48.4,18.8 48.9,19 49.3,19.1 49.8,19.2 
			50.3,19.3 50.8,19.3 51.3,19.4 51.8,19.4 51.8,19.4 		"/>
		<polygon fill-rule="evenodd" clip-rule="evenodd" fill="#FBB230" points="57.1,3.7 62.3,3.7 62.3,3.2 57.6,3.2 57.1,3.7 57.1,3.7 
					"/>
		<polygon fill-rule="evenodd" clip-rule="evenodd" fill="#FBB230" points="56.4,4.9 62.3,4.9 62.3,4.4 56.7,4.4 56.4,4.9 56.4,4.9 
					"/>
		<polygon fill-rule="evenodd" clip-rule="evenodd" fill="#FBB230" points="55.8,6.1 62.3,6.1 62.3,5.5 56,5.5 55.8,6.1 55.8,6.1 		
			"/>
		<polygon fill-rule="evenodd" clip-rule="evenodd" fill="#FBB230" points="55.4,7.2 62.3,7.2 62.3,6.7 55.5,6.7 55.4,7.2 55.4,7.2 
					"/>
		<polygon fill-rule="evenodd" clip-rule="evenodd" fill="#FBB230" points="55.6,12.9 62.3,12.9 62.3,12.4 55.4,12.4 55.6,12.9 
			55.6,12.9 		"/>
		<polygon fill-rule="evenodd" clip-rule="evenodd" fill="#FBB230" points="56.1,14.1 62.3,14.1 62.3,13.5 55.9,13.5 56.1,14.1 
			56.1,14.1 		"/>
		<polygon fill-rule="evenodd" clip-rule="evenodd" fill="#FBB230" points="56.8,15.2 62.3,15.2 62.3,14.7 56.5,14.7 56.8,15.2 
			56.8,15.2 		"/>
		<polygon fill-rule="evenodd" clip-rule="evenodd" fill="#FBB230" points="57.8,16.4 62.3,16.4 62.3,15.9 57.3,15.9 57.8,16.4 
			57.8,16.4 		"/>
		<polygon fill-rule="evenodd" clip-rule="evenodd" fill="#FBB230" points="55.1,8.4 62.3,8.4 62.3,7.9 55.2,7.9 55.1,8.4 55.1,8.4 
					"/>
		<polygon fill-rule="evenodd" clip-rule="evenodd" fill="#FBB230" points="59.5,11.7 62.2,11.7 62.2,11.2 59.6,11.2 59.5,11.7 
			59.5,11.7 		"/>
		<polygon fill-rule="evenodd" clip-rule="evenodd" fill="#FBB230" points="59.7,10.6 62.2,10.6 62.2,10 59.8,10 59.7,10.6 
			59.7,10.6 		"/>
		<polygon fill-rule="evenodd" clip-rule="evenodd" fill="#FBB230" points="55,10 55.7,10 55.7,10.6 55,10.6 55,10 55,10 		"/>
		<polygon fill-rule="evenodd" clip-rule="evenodd" fill="#FFFFFF" points="53.6,9.4 53.6,9.4 53.6,9.4 53.5,9.4 53.5,9.4 53.4,9.4 
			53.4,9.3 53.3,9.3 53.3,9.3 53.3,9.3 53.2,9.3 53.1,9.3 53.1,9.3 53,9.3 52.9,9.3 52.9,9.3 52.8,9.3 52.7,9.3 52.6,9.4 52.6,9.4 
			52.5,9.4 52.5,9.4 52.4,9.4 52.4,9.5 52.4,9.5 52.4,9.5 52.3,9.6 52.3,9.6 52.3,9.7 52.3,9.7 52.4,9.7 52.4,9.8 52.4,9.8 
			52.5,9.9 52.6,9.9 52.7,10 52.7,10 52.9,10 53,10.1 53.1,10.1 53.2,10.2 53.3,10.2 53.4,10.3 53.4,10.4 53.5,10.5 53.6,10.6 
			53.6,10.7 53.6,10.9 53.6,11.1 53.6,11.3 53.5,11.4 53.5,11.5 53.4,11.6 53.3,11.7 53.3,11.8 53.2,11.9 53.1,12 53,12 52.9,12.1 
			52.7,12.1 52.6,12.1 52.5,12.1 52.4,12.1 52.3,12.1 52.2,12.1 52.1,12.1 51.9,12.1 51.8,12.1 51.7,12.1 51.6,12.1 51.5,12.1 
			51.4,12.1 51.4,12.1 51.3,12.1 51.2,12.1 51.2,12.1 51.1,12.1 51.1,12.1 51,12 51,12 50.9,12 51,11.3 51.1,11.3 51.1,11.3 
			51.2,11.3 51.2,11.3 51.3,11.3 51.3,11.3 51.4,11.4 51.5,11.4 51.6,11.4 51.7,11.4 51.7,11.4 51.8,11.4 51.9,11.4 52,11.4 
			52.1,11.4 52.2,11.4 52.3,11.4 52.4,11.4 52.4,11.3 52.5,11.3 52.5,11.2 52.6,11.2 52.6,11.1 52.6,11.1 52.6,11 52.6,10.9 
			52.5,10.9 52.4,10.8 52.3,10.7 52.2,10.7 52.1,10.7 52,10.6 51.8,10.5 51.7,10.5 51.6,10.4 51.5,10.3 51.4,10.2 51.3,10 51.3,9.8 
			51.3,9.6 51.3,9.5 51.3,9.4 51.4,9.3 51.4,9.2 51.5,9.1 51.5,9 51.6,8.9 51.7,8.8 51.8,8.8 51.9,8.7 52,8.7 52.1,8.6 52.3,8.6 
			52.4,8.6 52.6,8.6 52.8,8.6 52.9,8.6 53,8.6 53.1,8.6 53.2,8.6 53.3,8.6 53.4,8.6 53.5,8.6 53.5,8.6 53.6,8.6 53.6,8.6 53.7,8.6 
			53.7,8.6 53.7,8.6 53.8,8.6 53.8,8.6 53.8,8.6 53.6,9.4 53.6,9.4 		"/>
		<polyline fill="none" stroke="#FFFFFF" stroke-width="0.216" stroke-miterlimit="2.6131" points="53.6,9.4 53.6,9.4 53.6,9.4 
			53.6,9.4 53.5,9.4 53.5,9.4 53.4,9.4 53.4,9.3 53.3,9.3 53.3,9.3 53.3,9.3 53.2,9.3 53.1,9.3 53.1,9.3 53,9.3 52.9,9.3 52.9,9.3 
			52.8,9.3 52.8,9.3 52.7,9.3 52.6,9.4 52.6,9.4 52.5,9.4 52.5,9.4 52.4,9.4 52.4,9.5 52.4,9.5 52.4,9.5 52.3,9.6 52.3,9.6 
			52.3,9.7 52.3,9.7 52.4,9.7 52.4,9.8 52.4,9.8 52.4,9.8 52.5,9.9 52.6,9.9 52.7,10 52.7,10 52.9,10 53,10.1 53.1,10.1 53.2,10.2 
			53.3,10.2 53.4,10.3 53.4,10.4 53.5,10.5 53.6,10.6 53.6,10.7 53.6,10.9 53.6,11.1 53.6,11.1 53.6,11.3 53.5,11.4 53.5,11.5 
			53.4,11.6 53.3,11.7 53.3,11.8 53.2,11.9 53.1,12 53,12 52.9,12.1 52.7,12.1 52.6,12.1 52.5,12.1 52.4,12.1 52.3,12.1 52.2,12.1 
			52.2,12.1 52.1,12.1 51.9,12.1 51.8,12.1 51.7,12.1 51.6,12.1 51.5,12.1 51.4,12.1 51.4,12.1 51.3,12.1 51.2,12.1 51.2,12.1 
			51.1,12.1 51.1,12.1 51,12 51,12 50.9,12 51,11.3 51,11.3 51.1,11.3 51.1,11.3 51.2,11.3 51.2,11.3 51.3,11.3 51.3,11.3 
			51.4,11.4 51.5,11.4 51.6,11.4 51.7,11.4 51.7,11.4 51.8,11.4 51.9,11.4 52,11.4 52.1,11.4 52.2,11.4 52.2,11.4 52.3,11.4 
			52.4,11.4 52.4,11.3 52.5,11.3 52.5,11.2 52.6,11.2 52.6,11.1 52.6,11.1 52.6,11.1 52.6,11 52.6,10.9 52.5,10.9 52.4,10.8 
			52.3,10.7 52.2,10.7 52.1,10.7 52,10.6 51.8,10.5 51.7,10.5 51.6,10.4 51.5,10.3 51.4,10.2 51.3,10 51.3,9.8 51.3,9.6 51.3,9.6 
			51.3,9.5 51.3,9.4 51.4,9.3 51.4,9.2 51.5,9.1 51.5,9 51.6,8.9 51.7,8.8 51.8,8.8 51.9,8.7 52,8.7 52.1,8.6 52.3,8.6 52.4,8.6 
			52.6,8.6 52.8,8.6 52.8,8.6 52.9,8.6 53,8.6 53.1,8.6 53.2,8.6 53.3,8.6 53.4,8.6 53.5,8.6 53.5,8.6 53.6,8.6 53.6,8.6 53.7,8.6 
			53.7,8.6 53.7,8.6 53.8,8.6 53.8,8.6 53.8,8.6 53.6,9.4 		"/>
		<polygon fill-rule="evenodd" clip-rule="evenodd" fill="#FFFFFF" points="54.4,7.8 55.3,7.8 55.2,8.6 55.7,8.6 55.6,9.4 55,9.4 
			54.7,11.2 54.7,11.2 54.7,11.3 54.8,11.3 54.8,11.4 54.9,11.4 54.9,11.4 55,11.4 55.1,11.4 55.2,11.4 55.2,11.4 55.3,11.4 
			55.3,11.4 55.4,11.4 55.4,11.4 55.4,11.4 55.4,11.4 55.3,12 55.3,12 55.3,12 55.3,12 55.2,12 55.2,12 55.2,12.1 55.2,12.1 
			55.1,12.1 55.1,12.1 55.1,12.1 55,12.1 55,12.1 54.9,12.1 54.9,12.1 54.8,12.1 54.8,12.1 54.5,12.1 54.4,12.1 54.3,12.1 
			54.2,12.1 54.1,12.1 54,12 54,12 53.9,12 53.9,11.9 53.8,11.9 53.8,11.8 53.8,11.8 53.8,11.7 53.8,11.6 53.8,11.6 53.8,11.5 
			53.8,11.4 54.4,7.8 54.4,7.8 		"/>
		<polyline fill="none" stroke="#FFFFFF" stroke-width="0.216" stroke-miterlimit="2.6131" points="54.4,7.8 55.3,7.8 55.2,8.6 
			55.7,8.6 55.6,9.4 55,9.4 54.7,11.2 54.7,11.2 54.7,11.2 54.7,11.3 54.8,11.3 54.8,11.4 54.9,11.4 54.9,11.4 55,11.4 55.1,11.4 
			55.1,11.4 55.2,11.4 55.2,11.4 55.3,11.4 55.3,11.4 55.4,11.4 55.4,11.4 55.4,11.4 55.4,11.4 55.3,12 55.3,12 55.3,12 55.3,12 
			55.3,12 55.2,12 55.2,12 55.2,12.1 55.2,12.1 55.1,12.1 55.1,12.1 55.1,12.1 55,12.1 55,12.1 54.9,12.1 54.9,12.1 54.8,12.1 
			54.8,12.1 54.5,12.1 54.5,12.1 54.4,12.1 54.3,12.1 54.2,12.1 54.1,12.1 54,12 54,12 53.9,12 53.9,11.9 53.8,11.9 53.8,11.8 
			53.8,11.8 53.8,11.7 53.8,11.6 53.8,11.6 53.8,11.5 53.8,11.4 54.4,7.8 		"/>
		<path fill-rule="evenodd" clip-rule="evenodd" fill="#FFFFFF" d="M58.7,9.7l0-0.2l0-0.2l-0.1-0.2L58.5,9l-0.1-0.1l-0.1-0.1
			l-0.1-0.1L58,8.7l-0.1,0l-0.1,0l-0.1,0l-0.1,0l-0.1,0l-0.3,0l-0.2,0l-0.2,0.1l-0.2,0.1l-0.2,0.1L56.1,9L56,9.1l-0.1,0.1l-0.1,0.1
			l-0.1,0.1l-0.1,0.1l0,0.1l0,0.1l0,0.1l0,0.1l0,0.1l0,0.3l0,0.2l0,0.2l0.1,0.2l0.1,0.2l0.1,0.2l0.1,0.1l0.1,0.1l0.1,0.1l0.1,0.1
			l0.2,0.1l0.2,0l0.2,0l0.2,0l0.2,0l0.2,0h0.1l0.1,0h0.1l0.1,0l0.1,0l0.1,0l0.1,0l0.1,0l0.1,0l0.1,0l0.1,0l0,0l0,0l0.1,0l0.1,0
			l0.1,0l0.1-0.8l-0.1,0.1l-0.1,0.1l-0.1,0l-0.1,0l-0.1,0l-0.1,0l-0.1,0l-0.1,0l-0.1,0l-0.1,0h-0.1l-0.1,0l-0.1,0l-0.1,0l-0.1,0
			l-0.1,0l-0.1,0l-0.1,0l-0.1,0l-0.1,0l-0.1,0l-0.1,0l0,0l0-0.1l0-0.1l0-0.1l0-0.1l0-0.1l0-0.1l0-0.1l0-0.1l0,0h0.4v0h1.7l0-0.2
			l0-0.3l0-0.2L58.7,9.7z M57.8,10h-0.9h-0.3l0,0l0-0.1l0-0.1l0-0.1l0-0.1l0-0.1l0-0.1l0,0l0,0l0,0l0,0l0,0l0.1,0l0.1,0l0.1,0l0.1,0
			l0.1,0l0.1,0l0.1,0l0.1,0l0.1,0l0,0l0,0l0,0l0,0l0,0l0,0l0,0.1l0,0.1l0,0.1l0,0.1L57.8,10L57.8,10z"/>
		<polygon fill-rule="evenodd" clip-rule="evenodd" fill="#FFFFFF" points="64.3,8.8 64.2,8.8 64.2,8.8 64.1,8.8 64.1,8.7 64,8.7 
			64,8.7 63.9,8.7 63.9,8.7 63.8,8.6 63.7,8.6 63.7,8.6 63.6,8.6 63.5,8.6 63.5,8.6 63.4,8.6 63.3,8.6 63.2,8.6 63.1,8.6 63,8.6 
			62.9,8.6 62.9,8.7 62.8,8.7 62.7,8.7 62.6,8.8 62.5,8.9 62.4,8.9 62.3,9.1 62.2,9.2 62.2,9.3 62.1,9.5 62,9.7 62,9.9 62,10 
			62,10.1 62,10.2 62,10.3 62,10.4 62,10.5 62,10.6 62.1,10.7 62.1,10.8 62.2,10.9 62.2,11 62.3,11.1 62.4,11.1 62.5,11.2 
			62.6,11.2 62.7,11.2 62.8,11.3 62.8,11.3 62.9,11.3 63,11.3 63,11.3 63.1,11.3 63.2,11.3 63.3,11.3 63.3,11.3 63.4,11.2 
			63.5,11.2 63.6,11.2 63.7,11.2 63.8,11.1 63.8,11.1 63.9,11 63.7,11.9 63.7,11.9 63.7,11.9 63.7,11.9 63.6,12 63.6,12 63.6,12 
			63.5,12 63.5,12.1 63.4,12.1 63.3,12.1 63.2,12.1 63.1,12.1 63,12.1 62.8,12.1 62.6,12.1 62.5,12.1 62.3,12.1 62.2,12.1 62,12 
			61.9,12 61.7,11.9 61.6,11.8 61.4,11.7 61.3,11.5 61.2,11.4 61.1,11.2 61,11 61,10.8 60.9,10.6 60.9,10.4 60.9,10.1 61,9.9 
			61,9.7 61,9.6 61.1,9.5 61.1,9.3 61.1,9.2 61.2,9.1 61.2,9 61.3,8.9 61.3,8.8 61.4,8.7 61.4,8.6 61.5,8.5 61.5,8.5 61.6,8.4 
			61.7,8.3 61.7,8.2 61.8,8.2 61.9,8.1 62,8 62,8 62.1,7.9 62.2,7.9 62.3,7.9 62.4,7.8 62.5,7.8 62.6,7.8 62.7,7.7 62.8,7.7 
			62.9,7.7 63.1,7.7 63.2,7.7 63.3,7.7 63.4,7.7 63.5,7.7 63.6,7.7 63.7,7.7 63.8,7.7 63.9,7.8 64,7.8 64,7.8 64.1,7.8 64.2,7.8 
			64.2,7.9 64.3,7.9 64.3,7.9 64.4,7.9 64.4,7.9 64.4,7.9 64.3,8.8 64.3,8.8 		"/>
		<polyline fill="none" stroke="#FFFFFF" stroke-width="0.216" stroke-miterlimit="2.6131" points="64.3,8.8 64.3,8.8 64.2,8.8 
			64.2,8.8 64.1,8.8 64.1,8.7 64,8.7 64,8.7 63.9,8.7 63.9,8.7 63.8,8.6 63.7,8.6 63.7,8.6 63.6,8.6 63.5,8.6 63.5,8.6 63.4,8.6 
			63.3,8.6 63.3,8.6 63.2,8.6 63.1,8.6 63,8.6 62.9,8.6 62.9,8.7 62.8,8.7 62.7,8.7 62.6,8.8 62.5,8.9 62.4,8.9 62.3,9.1 62.2,9.2 
			62.2,9.3 62.1,9.5 62,9.7 62,9.9 62,9.9 62,10 62,10.1 62,10.2 62,10.3 62,10.4 62,10.5 62,10.6 62.1,10.7 62.1,10.8 62.2,10.9 
			62.2,11 62.3,11.1 62.4,11.1 62.5,11.2 62.6,11.2 62.7,11.2 62.7,11.2 62.8,11.3 62.8,11.3 62.9,11.3 63,11.3 63,11.3 63.1,11.3 
			63.2,11.3 63.3,11.3 63.3,11.3 63.4,11.2 63.5,11.2 63.6,11.2 63.7,11.2 63.8,11.1 63.8,11.1 63.9,11 63.7,11.9 63.7,11.9 
			63.7,11.9 63.7,11.9 63.7,11.9 63.6,12 63.6,12 63.6,12 63.5,12 63.5,12.1 63.4,12.1 63.3,12.1 63.2,12.1 63.1,12.1 63,12.1 
			62.8,12.1 62.6,12.1 62.5,12.1 62.5,12.1 62.3,12.1 62.2,12.1 62,12 61.9,12 61.7,11.9 61.6,11.8 61.4,11.7 61.3,11.5 61.2,11.4 
			61.1,11.2 61,11 61,10.8 60.9,10.6 60.9,10.4 60.9,10.1 61,9.9 61,9.9 61,9.7 61,9.6 61.1,9.5 61.1,9.3 61.1,9.2 61.2,9.1 61.2,9 
			61.3,8.9 61.3,8.8 61.4,8.7 61.4,8.6 61.5,8.5 61.5,8.5 61.6,8.4 61.7,8.3 61.7,8.2 61.8,8.2 61.9,8.1 62,8 62,8 62.1,7.9 
			62.2,7.9 62.3,7.9 62.4,7.8 62.5,7.8 62.6,7.8 62.7,7.7 62.8,7.7 62.9,7.7 63.1,7.7 63.2,7.7 63.3,7.7 63.3,7.7 63.4,7.7 
			63.5,7.7 63.6,7.7 63.7,7.7 63.8,7.7 63.9,7.8 64,7.8 64,7.8 64.1,7.8 64.2,7.8 64.2,7.9 64.3,7.9 64.3,7.9 64.4,7.9 64.4,7.9 
			64.4,7.9 64.3,8.8 		"/>
		<polygon fill-rule="evenodd" clip-rule="evenodd" fill="#FFFFFF" points="72.3,12.1 71.4,12.1 71.5,11.8 71.5,11.7 71.4,11.8 
			71.4,11.9 71.3,11.9 71.3,12 71.2,12 71.1,12 71.1,12.1 71,12.1 71,12.1 70.9,12.1 70.8,12.2 70.8,12.2 70.7,12.2 70.6,12.2 
			70.6,12.2 70.5,12.2 70.3,12.2 70.2,12.1 70,12.1 69.9,12 69.8,11.9 69.7,11.8 69.6,11.7 69.5,11.5 69.4,11.4 69.4,11.2 
			69.4,11.1 69.3,10.9 69.3,10.7 69.3,10.6 69.3,10.4 69.4,10.2 69.4,10 69.5,9.9 69.5,9.7 69.6,9.5 69.7,9.4 69.8,9.3 69.9,9.1 
			70,9 70.1,8.9 70.3,8.9 70.4,8.8 70.5,8.7 70.6,8.7 70.8,8.7 70.9,8.6 71,8.6 71.1,8.6 71.2,8.6 71.3,8.7 71.4,8.7 71.5,8.7 
			71.5,8.7 71.6,8.8 71.6,8.8 71.7,8.8 71.8,8.9 71.8,8.9 71.8,9 71.9,9 71.9,9.1 71.9,9.1 71.9,9.1 71.9,9.1 72.2,7.9 73.1,7.9 
			72.3,12.1 72.3,12.1 		"/>
		<polyline fill="none" stroke="#FFFFFF" stroke-width="0.216" stroke-miterlimit="2.6131" points="72.3,12.1 71.4,12.1 71.5,11.8 
			71.5,11.7 71.5,11.7 71.4,11.8 71.4,11.9 71.3,11.9 71.3,12 71.2,12 71.1,12 71.1,12.1 71,12.1 71,12.1 70.9,12.1 70.8,12.2 
			70.8,12.2 70.7,12.2 70.6,12.2 70.6,12.2 70.5,12.2 70.5,12.2 70.3,12.2 70.2,12.1 70,12.1 69.9,12 69.8,11.9 69.7,11.8 
			69.6,11.7 69.5,11.5 69.4,11.4 69.4,11.2 69.4,11.1 69.3,10.9 69.3,10.7 69.3,10.6 69.3,10.4 69.4,10.2 69.4,10.2 69.4,10 
			69.5,9.9 69.5,9.7 69.6,9.5 69.7,9.4 69.8,9.3 69.9,9.1 70,9 70.1,8.9 70.3,8.9 70.4,8.8 70.5,8.7 70.6,8.7 70.8,8.7 70.9,8.6 
			71,8.6 71,8.6 71.1,8.6 71.2,8.6 71.3,8.7 71.4,8.7 71.5,8.7 71.5,8.7 71.6,8.8 71.6,8.8 71.7,8.8 71.8,8.9 71.8,8.9 71.8,9 
			71.9,9 71.9,9.1 71.9,9.1 71.9,9.1 71.9,9.1 72.2,7.9 73.1,7.9 72.3,12.1 		"/>
		<polygon fill-rule="evenodd" clip-rule="evenodd" fill="#FBB230" points="70.8,11.3 70.9,11.3 71,11.3 71.1,11.3 71.2,11.3 
			71.2,11.2 71.3,11.2 71.4,11.1 71.4,11.1 71.5,11 71.5,10.9 71.6,10.8 71.6,10.8 71.6,10.7 71.7,10.6 71.7,10.5 71.7,10.4 
			71.7,10.3 71.7,10.2 71.7,10.1 71.7,10.1 71.7,10 71.7,9.9 71.7,9.8 71.6,9.7 71.6,9.7 71.6,9.6 71.5,9.6 71.5,9.5 71.4,9.5 
			71.4,9.4 71.3,9.4 71.2,9.4 71.1,9.4 71.1,9.4 71,9.5 70.9,9.5 70.8,9.5 70.8,9.6 70.7,9.6 70.7,9.7 70.6,9.8 70.6,9.9 70.5,9.9 
			70.5,10 70.5,10.1 70.4,10.2 70.4,10.3 70.4,10.4 70.4,10.5 70.4,10.7 70.4,10.8 70.4,11 70.5,11.1 70.6,11.2 70.7,11.3 
			70.8,11.3 70.8,11.3 		"/>
		<polygon fill-rule="evenodd" clip-rule="evenodd" fill="#FFFFFF" points="50.8,11.4 50.6,12.1 49.8,12.1 49.8,12 49.8,11.9 
			49.8,11.8 49.9,11.7 49.8,11.8 49.8,11.8 49.7,11.9 49.6,11.9 49.6,12 49.5,12 49.4,12.1 49.3,12.1 49.2,12.1 49.1,12.1 49,12.2 
			48.9,12.2 48.8,12.2 48.7,12.2 48.6,12.2 48.5,12.2 48.4,12.1 48.3,12.1 48.2,12.1 48.2,12 48.1,12 48,11.9 48,11.8 47.9,11.8 
			47.9,11.7 47.8,11.6 47.8,11.6 47.8,11.5 47.8,11.4 47.8,11.3 47.8,11.3 47.8,11.2 47.8,11.1 47.8,10.9 47.8,10.8 47.9,10.7 
			47.9,10.6 48,10.5 48.1,10.4 48.1,10.3 48.2,10.3 48.3,10.2 48.4,10.1 48.5,10.1 48.6,10 48.7,10 48.8,10 48.9,10 48.9,10 49,10 
			49,10 49,9.9 49.1,9.9 49.1,9.9 49.2,9.9 49.2,9.9 49.3,9.9 49.3,9.9 49.4,9.9 49.4,9.9 49.5,9.9 49.5,9.9 49.6,9.9 49.6,9.9 
			49.7,9.9 49.8,9.9 49.8,9.9 49.9,9.9 50,9.9 50,9.9 50.1,9.9 50.1,9.9 50.1,9.9 50.1,9.8 50.1,9.8 50.1,9.7 50.1,9.6 50.1,9.6 
			50,9.5 50,9.4 49.9,9.4 49.8,9.4 49.8,9.4 49.7,9.4 49.6,9.3 49.5,9.3 49.4,9.3 49.3,9.3 49.2,9.4 49.1,9.4 49,9.4 48.9,9.4 
			48.8,9.4 48.7,9.4 48.6,9.4 48.5,9.4 48.4,9.5 48.4,9.5 48.3,9.5 48.3,9.5 48.5,8.7 48.6,8.7 48.7,8.7 48.8,8.7 48.8,8.6 
			48.9,8.6 49,8.6 49.1,8.6 49.2,8.6 49.3,8.6 49.4,8.6 49.5,8.6 49.6,8.6 49.7,8.6 49.8,8.6 49.9,8.6 50,8.6 50.1,8.6 50.2,8.6 
			50.3,8.6 50.4,8.7 50.5,8.7 50.6,8.8 50.7,8.8 50.8,8.9 50.9,8.9 50.9,9 51,9.1 51,9.2 51.1,9.3 51.1,9.4 51.1,9.5 51.1,9.7 
			50.8,11.4 50.8,11.4 		"/>
		<polyline fill="none" stroke="#FFFFFF" stroke-width="0.216" stroke-miterlimit="2.6131" points="50.8,11.4 50.6,12.1 49.8,12.1 
			49.8,12.1 49.8,12 49.8,11.9 49.8,11.8 49.9,11.7 49.9,11.7 49.8,11.8 49.8,11.8 49.7,11.9 49.6,11.9 49.6,12 49.5,12 49.4,12.1 
			49.3,12.1 49.2,12.1 49.1,12.1 49,12.2 48.9,12.2 48.8,12.2 48.7,12.2 48.6,12.2 48.5,12.2 48.5,12.2 48.4,12.1 48.3,12.1 
			48.2,12.1 48.2,12 48.1,12 48,11.9 48,11.8 47.9,11.8 47.9,11.7 47.8,11.6 47.8,11.6 47.8,11.5 47.8,11.4 47.8,11.3 47.8,11.3 
			47.8,11.2 47.8,11.2 47.8,11.1 47.8,10.9 47.8,10.8 47.9,10.7 47.9,10.6 48,10.5 48.1,10.4 48.1,10.3 48.2,10.3 48.3,10.2 
			48.4,10.1 48.5,10.1 48.6,10 48.7,10 48.8,10 48.9,10 48.9,10 48.9,10 49,10 49,10 49,9.9 49.1,9.9 49.1,9.9 49.2,9.9 49.2,9.9 
			49.3,9.9 49.3,9.9 49.4,9.9 49.4,9.9 49.5,9.9 49.5,9.9 49.6,9.9 49.6,9.9 49.6,9.9 49.7,9.9 49.8,9.9 49.8,9.9 49.9,9.9 50,9.9 
			50,9.9 50.1,9.9 50.1,9.9 50.1,9.9 50.1,9.9 50.1,9.8 50.1,9.8 50.1,9.7 50.1,9.7 50.1,9.6 50.1,9.6 50,9.5 50,9.4 49.9,9.4 
			49.8,9.4 49.8,9.4 49.7,9.4 49.7,9.4 49.6,9.3 49.5,9.3 49.4,9.3 49.3,9.3 49.2,9.4 49.1,9.4 49,9.4 48.9,9.4 48.8,9.4 48.7,9.4 
			48.6,9.4 48.5,9.4 48.4,9.5 48.4,9.5 48.3,9.5 48.3,9.5 48.5,8.7 48.5,8.7 48.6,8.7 48.7,8.7 48.8,8.7 48.8,8.6 48.9,8.6 49,8.6 
			49.1,8.6 49.2,8.6 49.3,8.6 49.4,8.6 49.5,8.6 49.6,8.6 49.7,8.6 49.8,8.6 49.9,8.6 50,8.6 50,8.6 50.1,8.6 50.2,8.6 50.3,8.6 
			50.4,8.7 50.5,8.7 50.6,8.8 50.7,8.8 50.8,8.9 50.9,8.9 50.9,9 51,9.1 51,9.2 51.1,9.3 51.1,9.4 51.1,9.5 51.1,9.7 50.8,11.4 		
			"/>
		<polygon fill-rule="evenodd" clip-rule="evenodd" fill="#EB2230" points="50,10.6 50,10.5 49.9,10.5 49.9,10.5 49.9,10.5 
			49.9,10.5 49.8,10.5 49.8,10.5 49.7,10.5 49.7,10.5 49.6,10.5 49.6,10.5 49.5,10.5 49.5,10.5 49.4,10.5 49.4,10.5 49.3,10.6 
			49.3,10.6 49.3,10.6 49.2,10.6 49.2,10.6 49.2,10.6 49.1,10.6 49.1,10.7 49,10.7 49,10.7 49,10.8 48.9,10.8 48.9,10.8 48.8,10.9 
			48.8,10.9 48.8,11 48.8,11 48.8,11.1 48.8,11.2 48.8,11.3 48.9,11.3 48.9,11.4 49,11.4 49,11.4 49.1,11.4 49.2,11.4 49.3,11.4 
			49.4,11.4 49.4,11.4 49.5,11.3 49.6,11.3 49.6,11.3 49.7,11.2 49.7,11.2 49.8,11.2 49.8,11.1 49.8,11.1 49.8,11.1 49.9,11 
			49.9,11 49.9,10.9 49.9,10.8 49.9,10.7 49.9,10.6 50,10.6 50,10.6 		"/>
		<polygon fill-rule="evenodd" clip-rule="evenodd" fill="#FFFFFF" points="43.9,12.1 43,12.1 43.7,7.8 45.3,7.8 45.4,10.4 
			46.5,7.8 48.1,7.8 47.3,12.1 46.5,12.1 47,8.9 47,8.9 45.6,12.1 44.6,12.1 44.6,12 44.6,11.6 44.6,11.1 44.6,10.6 44.5,10 
			44.5,9.5 44.5,9.1 44.5,8.9 44.5,8.9 44.4,8.9 44.4,8.9 44.4,8.9 43.9,12.1 43.9,12.1 		"/>
		<polygon fill-rule="evenodd" clip-rule="evenodd" fill="#FFFFFF" points="67,11.4 66.9,12.1 66,12.1 66,12 66,11.9 66,11.8 
			66,11.8 66,11.8 66,11.9 65.9,11.9 65.8,11.9 65.8,12 65.7,12 65.6,12.1 65.5,12.1 65.4,12.1 65.3,12.1 65.2,12.2 65.2,12.2 
			65.1,12.2 65,12.2 64.9,12.2 64.8,12.2 64.7,12.1 64.6,12.1 64.5,12.1 64.4,12 64.3,12 64.3,11.9 64.2,11.8 64.2,11.8 64.1,11.7 
			64.1,11.6 64.1,11.6 64.1,11.5 64,11.4 64,11.3 64,11.3 64,11.2 64,11.1 64,10.9 64.1,10.8 64.1,10.7 64.2,10.6 64.2,10.5 
			64.3,10.4 64.4,10.3 64.5,10.3 64.5,10.2 64.6,10.1 64.7,10.1 64.8,10 65,10 65.1,10 65.2,10 65.2,10 65.2,10 65.2,10 65.3,9.9 
			65.3,9.9 65.3,9.9 65.4,9.9 65.4,9.9 65.5,9.9 65.6,9.9 65.6,9.9 65.7,9.9 65.7,9.9 65.8,9.9 65.8,9.9 65.8,9.9 65.9,9.9 66,9.9 
			66.1,9.9 66.2,9.9 66.2,9.9 66.3,9.9 66.3,9.9 66.3,9.9 66.3,9.9 66.3,9.8 66.3,9.8 66.3,9.7 66.3,9.6 66.3,9.6 66.3,9.5 
			66.2,9.4 66.2,9.4 66.1,9.4 66,9.4 65.9,9.4 65.8,9.3 65.7,9.3 65.6,9.3 65.5,9.3 65.4,9.4 65.3,9.4 65.2,9.4 65.1,9.4 65,9.4 
			64.9,9.4 64.8,9.4 64.8,9.4 64.7,9.5 64.6,9.5 64.6,9.5 64.5,9.5 64.8,8.7 64.8,8.7 64.9,8.7 65,8.7 65.1,8.6 65.2,8.6 65.2,8.6 
			65.3,8.6 65.4,8.6 65.5,8.6 65.6,8.6 65.7,8.6 65.8,8.6 65.9,8.6 66,8.6 66.1,8.6 66.2,8.6 66.3,8.6 66.4,8.6 66.5,8.6 66.6,8.7 
			66.7,8.7 66.8,8.8 66.9,8.8 67,8.9 67.1,8.9 67.2,9 67.2,9.1 67.3,9.2 67.3,9.3 67.3,9.4 67.3,9.5 67.3,9.7 67,11.4 67,11.4 		"/>
		<polygon fill-rule="evenodd" clip-rule="evenodd" fill="#FBB230" points="66.2,10.6 66.2,10.5 66.2,10.5 66.2,10.5 66.1,10.5 
			66.1,10.5 66,10.5 66,10.5 65.9,10.5 65.9,10.5 65.8,10.5 65.8,10.5 65.7,10.5 65.7,10.5 65.6,10.5 65.6,10.5 65.6,10.6 
			65.5,10.6 65.5,10.6 65.5,10.6 65.5,10.6 65.4,10.6 65.4,10.6 65.3,10.7 65.3,10.7 65.2,10.7 65.2,10.7 65.2,10.8 65.1,10.8 
			65.1,10.9 65.1,10.9 65.1,11 65,11 65,11.1 65.1,11.2 65.1,11.3 65.1,11.3 65.2,11.4 65.2,11.4 65.3,11.4 65.3,11.4 65.4,11.4 
			65.5,11.4 65.6,11.4 65.7,11.4 65.8,11.3 65.8,11.3 65.9,11.3 65.9,11.2 66,11.2 66,11.1 66.1,11.1 66.1,11.1 66.1,11 66.1,11 
			66.1,10.9 66.1,10.9 66.2,10.8 66.2,10.7 66.2,10.6 66.2,10.6 66.2,10.6 		"/>
		<polygon fill-rule="evenodd" clip-rule="evenodd" fill="#FFFFFF" points="72.9,11.7 72.9,11.6 73,11.5 73,11.4 73.1,11.4 
			73.1,11.3 73.2,11.3 73.3,11.3 73.4,11.2 73.5,11.3 73.6,11.3 73.6,11.3 73.7,11.4 73.8,11.4 73.8,11.5 73.8,11.6 73.8,11.7 
			73.7,11.7 73.7,11.6 73.7,11.6 73.7,11.5 73.7,11.4 73.6,11.4 73.5,11.4 73.5,11.3 73.4,11.3 73.3,11.3 73.2,11.4 73.2,11.4 
			73.1,11.4 73.1,11.5 73.1,11.6 73,11.6 73,11.7 72.9,11.7 72.9,11.7 		"/>
		<polygon fill-rule="evenodd" clip-rule="evenodd" fill="#FFFFFF" points="73.2,11.7 73.2,11.5 73.4,11.5 73.4,11.5 73.5,11.5 
			73.5,11.5 73.5,11.5 73.5,11.5 73.6,11.6 73.6,11.6 73.6,11.6 73.6,11.6 73.6,11.7 73.5,11.7 73.5,11.7 73.4,11.7 73.4,11.7 
			73.4,11.7 73.5,11.7 73.5,11.7 73.5,11.7 73.5,11.6 73.5,11.6 73.5,11.6 73.5,11.6 73.5,11.6 73.5,11.6 73.5,11.6 73.5,11.6 
			73.4,11.6 73.4,11.6 73.4,11.6 73.3,11.6 73.3,11.7 73.2,11.7 73.2,11.7 		"/>
		<polygon fill-rule="evenodd" clip-rule="evenodd" fill="#FFFFFF" points="72.9,11.7 72.9,11.7 72.9,11.8 73,11.9 73,12 73.1,12 
			73.1,12.1 73.2,12.1 73.3,12.2 73.4,12.2 73.5,12.2 73.6,12.1 73.6,12.1 73.7,12 73.8,12 73.8,11.9 73.8,11.8 73.9,11.7 
			73.8,11.7 73.7,11.7 73.8,11.7 73.7,11.8 73.7,11.9 73.7,11.9 73.7,12 73.6,12 73.5,12.1 73.5,12.1 73.4,12.1 73.3,12.1 
			73.2,12.1 73.2,12 73.1,12 73.1,11.9 73.1,11.9 73,11.8 73,11.7 73,11.7 72.9,11.7 72.9,11.7 		"/>
		<polygon fill-rule="evenodd" clip-rule="evenodd" fill="#FFFFFF" points="73.2,11.7 73.2,11.9 73.3,11.9 73.3,11.7 73.4,11.7 
			73.5,11.9 73.6,11.9 73.5,11.7 73.5,11.7 73.5,11.7 73.5,11.7 73.5,11.7 73.5,11.7 73.4,11.7 73.4,11.7 73.3,11.7 73.3,11.7 
			73.2,11.7 73.2,11.7 		"/>
		<polygon fill-rule="evenodd" clip-rule="evenodd" fill="#FFFFFF" points="67.2,12.1 68.2,12.1 68.2,12.1 68.5,10.3 68.5,10.2 
			68.5,10.1 68.5,10.1 68.6,10 68.6,9.9 68.6,9.8 68.7,9.8 68.7,9.7 68.8,9.7 68.9,9.6 68.9,9.6 69,9.5 69.1,9.5 69.2,9.5 69.3,9.4 
			69.5,9.4 69.5,9.4 69.5,9.4 69.5,9.4 69.5,9.4 69.7,8.6 69.6,8.6 69.5,8.6 69.4,8.6 69.3,8.6 69.3,8.7 69.2,8.7 69.1,8.7 
			69.1,8.8 69,8.8 69,8.9 68.9,8.9 68.9,9 68.8,9 68.8,9.1 68.7,9.2 68.7,9.2 68.8,8.6 67.8,8.6 67.2,12.1 67.2,12.1 67.2,12.1 		
			"/>
		<polyline fill="none" stroke="#FFFFFF" stroke-width="0.216" stroke-miterlimit="2.6131" points="67.2,12.1 68.2,12.1 68.2,12.1 
			68.5,10.3 68.5,10.3 68.5,10.2 68.5,10.1 68.5,10.1 68.6,10 68.6,9.9 68.6,9.8 68.7,9.8 68.7,9.7 68.8,9.7 68.9,9.6 68.9,9.6 
			69,9.5 69.1,9.5 69.2,9.5 69.3,9.4 69.5,9.4 69.5,9.4 69.5,9.4 69.5,9.4 69.5,9.4 69.5,9.4 69.7,8.6 69.7,8.6 69.6,8.6 69.5,8.6 
			69.4,8.6 69.3,8.6 69.3,8.7 69.2,8.7 69.1,8.7 69.1,8.8 69,8.8 69,8.9 68.9,8.9 68.9,9 68.8,9 68.8,9.1 68.7,9.2 68.7,9.2 
			68.8,8.6 67.8,8.6 67.2,12.1 67.2,12.1 		"/>
		<polygon fill-rule="evenodd" clip-rule="evenodd" fill="#FFFFFF" points="58.6,12.1 59.5,12.1 59.5,12.1 59.8,10.3 59.8,10.2 
			59.9,10.1 59.9,10.1 59.9,10 59.9,9.9 59.9,9.9 60,9.8 60,9.8 60.1,9.7 60.1,9.7 60.2,9.6 60.3,9.6 60.4,9.6 60.5,9.5 60.6,9.5 
			60.7,9.5 60.7,9.5 60.8,9.5 60.8,9.5 60.8,9.5 60.8,9.5 60.8,9.5 60.8,9.5 60.8,9.5 60.8,9.5 60.8,9.5 60.9,9.4 60.9,9.3 
			60.9,9.2 60.9,9.2 60.9,9.1 61,9 61,8.9 61,8.8 61.1,8.8 61.1,8.7 61.1,8.7 61.1,8.6 61.2,8.6 61.2,8.6 61.2,8.6 61.2,8.6 
			61.1,8.6 61.1,8.6 61.1,8.6 61.1,8.6 61,8.6 61,8.6 60.9,8.6 60.8,8.6 60.7,8.6 60.7,8.6 60.6,8.7 60.5,8.7 60.5,8.7 60.4,8.8 
			60.3,8.8 60.3,8.9 60.2,8.9 60.2,9 60.1,9 60.1,9.1 60.1,9.2 60,9.2 60.1,8.6 59.2,8.6 58.6,12.1 58.6,12.1 58.6,12.1 		"/>
		<polyline fill="none" stroke="#FFFFFF" stroke-width="0.216" stroke-miterlimit="2.6131" points="58.6,12.1 59.5,12.1 59.5,12.1 
			59.8,10.3 59.8,10.3 59.8,10.2 59.9,10.1 59.9,10.1 59.9,10 59.9,9.9 59.9,9.9 60,9.8 60,9.8 60.1,9.7 60.1,9.7 60.2,9.6 
			60.3,9.6 60.4,9.6 60.5,9.5 60.6,9.5 60.7,9.5 60.7,9.5 60.7,9.5 60.8,9.5 60.8,9.5 60.8,9.5 60.8,9.5 60.8,9.5 60.8,9.5 
			60.8,9.5 60.8,9.5 60.8,9.5 60.8,9.5 60.9,9.4 60.9,9.3 60.9,9.2 60.9,9.2 60.9,9.1 61,9 61,9 61,8.9 61,8.8 61.1,8.8 61.1,8.7 
			61.1,8.7 61.1,8.6 61.2,8.6 61.2,8.6 61.2,8.6 61.2,8.6 61.2,8.6 61.1,8.6 61.1,8.6 61.1,8.6 61.1,8.6 61,8.6 61,8.6 61,8.6 
			60.9,8.6 60.8,8.6 60.7,8.6 60.7,8.6 60.6,8.7 60.5,8.7 60.5,8.7 60.4,8.8 60.3,8.8 60.3,8.9 60.2,8.9 60.2,9 60.1,9 60.1,9.1 
			60.1,9.2 60,9.2 60.1,8.6 59.2,8.6 58.6,12.1 58.6,12.1 		"/>
	</g>
	<g>
		<path fill-rule="evenodd" clip-rule="evenodd" fill="#020202" d="M119,7.6h1.3c0.8,0,1.9,0.7,1.9,1.9l0,0l0,0
			c0,1.2-1.1,1.9-1.9,1.9H119V7.6L119,7.6z M119.7,10.9c0,0,1.6,0.2,1.6-1.3v0c0-1.4-1.6-1.3-1.6-1.3V10.9z"/>
		<rect x="122.5" y="7.6" fill-rule="evenodd" clip-rule="evenodd" fill="#020202" width="0.8" height="3.9"/>
		<path fill-rule="evenodd" clip-rule="evenodd" fill="#020202" d="M125.6,8.5c0,0-0.3-0.3-0.6-0.3c-0.3,0-0.5,0.2-0.5,0.4
			c0,0.2,0,0.3,0.5,0.5c0.5,0.2,1.2,0.4,1.2,1.2c0,0.9-0.7,1.3-1.3,1.3c-1,0-1.4-0.7-1.4-0.7l0.5-0.5c0,0,0.3,0.5,0.8,0.5
			c0.5,0,0.6-0.4,0.6-0.5c0-0.2-0.1-0.4-0.4-0.5c-0.3-0.1-1.2-0.2-1.2-1.1c0-0.8,0.6-1.2,1.2-1.2c0.6,0,1.1,0.5,1.1,0.5L125.6,8.5z"
			/>
		<path fill-rule="evenodd" clip-rule="evenodd" fill="#020202" d="M129.4,8.7c-0.2-0.2-0.6-0.4-0.9-0.4c-0.7,0-1.3,0.6-1.3,1.3
			c0,0.7,0.6,1.3,1.3,1.3c0.4,0,0.7-0.2,0.9-0.4l0,0.9c-0.3,0.1-0.6,0.2-0.9,0.2c-1.1,0-2-0.9-2-2c0-1.1,0.9-2,2-2
			c0.3,0,0.7,0.1,0.9,0.2V8.7z"/>
		<polygon fill-rule="evenodd" clip-rule="evenodd" fill="#020202" points="133.6,7.6 134.4,7.6 135.5,10.2 136.5,7.6 137.3,7.6 
			135.7,11.6 135.2,11.6 		"/>
		<path fill-rule="evenodd" clip-rule="evenodd" fill="#020202" d="M140.3,7.6h1.3c0.4,0,1.2,0.2,1.2,1.1c0,0.9-0.8,1.1-0.8,1.1
			l1.2,1.6h-0.9l-1-1.5H141v1.5h-0.8V7.6L140.3,7.6z M141,8.3v1.1h0.4c0.3,0,0.5-0.3,0.5-0.5v0c0-0.3-0.2-0.5-0.5-0.5H141z"/>
		<polygon fill-rule="evenodd" clip-rule="evenodd" fill="#020202" points="139.7,9.2 139.7,9.9 138.4,9.9 138.4,10.8 139.8,10.8 
			139.8,11.5 137.6,11.5 137.6,7.6 139.8,7.6 139.8,8.3 138.4,8.3 138.4,9.2 		"/>
		<path fill-rule="evenodd" clip-rule="evenodd" fill="#020202" d="M143.1,8L143.1,8C143.2,8,143.2,8,143.1,8c0.1,0,0.1,0,0.1,0
			c0,0,0,0,0,0C143.2,7.9,143.2,7.9,143.1,8C143.2,7.9,143.2,7.9,143.1,8C143.2,7.9,143.2,7.9,143.1,8L143.1,8L143.1,8L143.1,8z
			 M143.1,8.2V7.9h0.1c0,0,0,0,0.1,0c0,0,0,0,0,0c0,0,0,0,0,0.1c0,0,0,0,0,0.1c0,0,0,0-0.1,0c0,0,0,0,0,0c0,0,0,0,0,0.1l0,0.1h-0.1
			l0-0.1c0,0,0,0,0,0c0,0,0,0,0,0c0,0,0,0,0,0h0L143.1,8.2L143.1,8.2z"/>
		
			<path fill-rule="evenodd" clip-rule="evenodd" fill="none" stroke="#010101" stroke-width="6.380000e-02" stroke-linecap="round" stroke-miterlimit="3.8637" d="
			M142.9,8c0-0.1,0.1-0.3,0.3-0.3c0.1,0,0.3,0.1,0.3,0.3c0,0.1-0.1,0.3-0.3,0.3C143,8.3,142.9,8.2,142.9,8"/>
		<circle fill-rule="evenodd" clip-rule="evenodd" fill="#F16824" cx="131.7" cy="9.6" r="2"/>
	</g>
	<g>
		<path fill-rule="evenodd" clip-rule="evenodd" fill="#099DD9" d="M80.8,0h28.4c1.1,0,2.1,0.9,2.1,1.9v15.9c0,1-0.9,1.9-2.1,1.9
			H80.8c-1.1,0-2.1-0.9-2.1-1.9V1.9C78.8,0.9,79.7,0,80.8,0z"/>
		<g>
			<polygon fill="#FFFFFF" points="86.6,13.5 86,12.1 84.2,12.1 83.6,13.5 79.7,13.5 83.6,5.6 86.5,5.6 90.6,13.5 			"/>
			<polygon fill="#FFFFFF" points="87.6,13.5 87.6,5.6 91.7,5.6 92.3,7.5 93,5.6 97,5.6 97,13.5 			"/>
			<polygon fill="#FFFFFF" points="95.4,13.5 95.4,5.6 103.1,5.6 103.1,8.6 102.8,8.6 102.8,10.5 103.2,10.5 103.2,13.5 			"/>
			<polygon fill="#FFFFFF" points="106.4,13.5 105.2,12 104,13.5 99.5,13.5 103,9.4 99.8,5.6 104.2,5.6 105.2,6.9 106.2,5.6 
				110.6,5.6 107.4,9.4 110.9,13.5 			"/>
			<path fill="#3089C0" d="M96.4,12.5V6.6h5.6v1H98v1.3h3.8v1H98v1.6h4.2v1H96.4z"/>
			<path fill="#3089C0" d="M101.7,12.5l2.6-3.1l-2.3-2.8h1.8l1.5,1.9l1.5-1.9h1.8l-2.4,2.9l2.6,3h-1.8l-1.7-2l-1.7,2H101.7z"/>
			<path fill="#099DD9" d="M88.9,12.5h-1.7l-0.7-1.3h-3l-0.6,1.3h-1.6l3-5.9h1.6L88.9,12.5z M86.1,10.1l-1-2.2l-1,2.2H86.1z"/>
			<path fill="#099DD9" d="M88.6,12.5V6.6h2.3l1.4,4l1.4-4H96v5.9h-1.4V7.8L93,12.5h-1.5l-1.5-4.6v4.6H88.6z"/>
		</g>
	</g>
</g>
</svg>
